<?xml version="1.0" encoding="utf-8"?>
<svg version="1.1" xmlns="http://www.w3.org/2000/svg" xmlns:xlink="http://www.w3.org/1999/xlink" x="0px" y="0px" width="300px" height="300px" viewBox="0 0 600 600">
<style type="text/css">
  @keyframes line-ani { 0%, 30% { stroke-dashoffset: 700; } 100% { stroke-dashoffset: -700; } }
  @keyframes scaling { 0%, { scale: 1; translate: 0; } 100% { scale: 1.5; translate: -25% -50%  } }
  .line { 
    stroke: rgba(09, 249, 249, .7);
    fill: none;
    stroke-dasharray: 700;
    stroke-dashoffset: 700;
    stroke-width: 6px;
  }
    .pic {animation: line-ani 9.5s 2s infinite alternate, scaling 60s 20s infinite alternate; }
    .circle {animation: line-ani 10s 1s infinite;}
 }
</style>
<g id="b_1_">
  <circle class="line" cx="300" cy="300" r="300" />
  <circle class="line circle" cx="300" cy="300" r="300" />
  <path class="line pic" stroke-miterlimit="10" d="M 0.00,300.00 L 0.00,0.00 L 43.51,0.00 C85.69,0.00 87.16,0.06 91.51,2.11 C95.07,3.78 96.00,4.74 96.00,6.72 C96.00,8.09 97.11,10.53 98.46,12.13 C99.81,13.74 100.69,15.63 100.42,16.34 C100.15,17.05 100.85,18.46 101.96,19.47 C103.08,20.48 104.00,20.94 104.00,20.49 C104.00,20.04 105.73,21.54 107.85,23.83 C111.04,27.29 112.33,28.00 115.42,28.00 C119.48,28.00 120.93,26.97 123.30,22.38 C124.16,20.72 125.59,18.75 126.48,18.02 C127.71,17.00 127.80,16.49 126.86,15.91 C125.91,15.33 125.88,14.31 126.72,11.57 C127.33,9.58 127.41,8.00 126.91,8.00 C126.41,8.00 126.00,6.20 126.00,4.00 L 126.00,0.00 L 137.00,0.00 L 148.00,0.00 L 148.12,4.25 C148.19,6.59 148.31,15.25 148.39,23.50 C148.51,35.54 148.88,39.17 150.27,41.90 C151.22,43.78 152.00,45.91 152.00,46.65 C152.00,47.39 152.68,48.00 153.50,48.00 C154.51,48.00 155.00,49.01 155.00,51.06 C155.00,56.34 157.85,63.39 160.54,64.75 C161.89,65.44 164.12,66.56 165.49,67.25 C166.86,67.94 167.99,69.25 167.99,70.17 C168.00,71.08 168.48,71.99 169.06,72.19 C169.76,72.42 170.22,83.68 170.44,106.02 C170.62,124.43 171.29,144.68 171.92,151.00 C173.22,163.95 173.63,192.11 172.62,199.12 C171.69,205.61 174.50,211.60 181.97,219.05 C185.29,222.36 188.00,225.57 188.00,226.20 C188.00,226.83 188.72,228.14 189.60,229.11 C190.85,230.50 191.67,230.65 193.44,229.84 C195.64,228.84 195.71,228.31 196.28,209.15 C196.73,193.59 196.53,187.81 195.30,181.49 C194.45,177.10 193.54,171.14 193.28,168.25 C192.90,163.95 192.48,163.00 190.94,163.00 C188.13,163.00 186.61,159.53 188.57,157.57 C190.32,155.83 194.00,155.44 194.00,157.00 C194.00,157.55 194.63,158.00 195.41,158.00 C197.89,158.00 200.10,148.98 201.03,135.00 C201.53,127.58 202.45,117.72 203.09,113.10 C204.38,103.76 203.68,91.97 201.46,85.61 C199.76,80.73 199.44,70.64 201.06,73.00 C201.79,74.08 201.93,73.09 201.54,69.50 L 201.00,64.50 L 202.47,67.67 C203.28,69.42 204.44,71.15 205.04,71.52 C206.88,72.66 207.41,71.12 205.83,69.26 C205.01,68.29 203.80,65.60 203.14,63.27 C202.07,59.51 202.17,58.59 204.06,54.88 C205.23,52.59 206.71,50.11 207.34,49.36 C210.33,45.88 215.00,41.15 215.00,41.63 C215.00,41.92 216.11,40.84 217.46,39.23 C221.21,34.77 230.15,28.21 234.63,26.63 C236.82,25.86 240.62,24.31 243.06,23.20 C254.64,17.94 259.35,16.00 260.55,16.00 C261.27,16.00 262.45,15.41 263.18,14.68 C263.91,13.95 266.75,12.51 269.50,11.49 C276.55,8.85 279.88,6.07 279.94,2.75 C279.99,0.51 280.46,0.00 282.47,0.00 C284.15,0.00 284.77,0.44 284.41,1.37 C283.33,4.18 293.74,3.60 296.65,0.69 C297.02,0.31 308.79,0.00 322.80,0.00 C347.42,0.00 348.49,0.08 355.17,2.49 C358.97,3.86 363.75,5.86 365.79,6.93 C367.83,8.00 371.53,9.57 374.01,10.43 C379.06,12.17 386.33,17.67 385.45,19.08 C385.14,19.59 385.55,20.00 386.37,20.00 C388.37,20.00 395.00,28.20 395.00,30.67 C395.00,31.74 396.40,33.95 398.11,35.56 C399.82,37.18 403.36,41.66 405.99,45.53 C408.62,49.40 411.52,53.19 412.45,53.96 C414.95,56.03 417.66,61.88 418.50,67.00 C419.38,72.33 421.87,78.97 423.70,80.82 C424.53,81.66 425.00,84.78 425.00,89.37 C425.00,93.40 425.50,97.10 426.13,97.73 C426.80,98.40 426.97,99.98 426.56,101.62 C426.01,103.79 425.66,104.08 424.95,102.95 C424.44,102.15 423.98,100.15 423.92,98.50 C423.80,95.55 423.79,95.54 423.00,98.00 C422.23,100.41 422.20,100.39 422.10,97.37 C422.00,94.17 419.90,91.43 418.58,92.76 C418.17,93.16 418.10,92.15 418.42,90.50 C418.75,88.85 418.75,88.06 418.42,88.75 C417.57,90.56 416.00,90.28 416.00,88.32 C416.00,86.80 414.74,83.72 410.37,74.50 L 408.95,71.50 L 409.61,75.50 C409.97,77.70 410.91,80.77 411.69,82.32 C412.48,83.87 412.95,85.89 412.74,86.82 C412.48,87.99 411.89,87.45 410.80,85.00 C409.95,83.08 408.03,79.47 406.54,77.00 C404.40,73.44 403.96,73.08 404.44,75.25 C404.77,76.76 404.81,78.00 404.52,78.00 C403.56,78.00 399.82,69.10 400.40,68.16 C400.71,67.65 400.19,66.17 399.24,64.87 C398.28,63.57 396.67,60.87 395.66,58.87 C394.64,56.87 392.73,54.74 391.41,54.14 C388.67,52.89 388.65,52.94 389.98,56.43 C390.51,57.85 391.58,59.00 392.36,59.00 C393.13,59.00 394.04,60.01 394.37,61.25 C395.38,65.00 395.10,65.39 392.83,63.40 C391.63,62.36 390.99,62.06 391.39,62.75 C392.48,64.61 391.26,64.26 389.08,62.08 C388.03,61.03 387.42,59.92 387.73,59.61 C388.03,59.30 387.72,58.36 387.02,57.52 C386.32,56.69 386.14,56.00 386.60,56.00 C387.06,56.00 386.44,55.30 385.22,54.44 C384.00,53.59 383.03,52.12 383.07,51.19 C383.12,49.91 383.40,50.04 384.22,51.75 C385.23,53.84 387.00,54.85 387.00,53.33 C387.00,51.30 383.75,49.38 381.00,49.79 C377.49,50.30 377.26,51.26 380.00,54.00 C382.33,56.33 382.70,57.83 380.50,56.00 C378.51,54.34 378.61,55.29 380.95,60.14 C382.37,63.07 382.53,64.03 381.53,63.65 C380.78,63.36 379.91,63.80 379.59,64.63 C379.27,65.45 378.56,65.85 378.01,65.50 C377.45,65.16 377.00,65.58 377.00,66.44 C377.00,67.30 376.32,68.00 375.50,68.00 C374.68,68.00 374.00,67.63 374.00,67.17 C374.00,66.71 372.87,65.74 371.50,65.00 C370.12,64.26 369.00,62.87 369.00,61.91 C369.00,59.58 361.41,52.22 357.00,50.27 C352.37,48.22 343.83,46.98 344.30,48.43 C344.49,49.02 346.31,49.92 348.33,50.43 C350.88,51.07 352.00,51.91 352.00,53.18 C352.00,54.18 352.47,55.00 353.04,55.00 C353.61,55.00 355.05,55.90 356.23,57.00 C357.86,58.52 358.57,58.70 359.17,57.75 C359.74,56.85 359.97,56.83 359.98,57.68 C359.99,58.33 360.62,59.47 361.37,60.23 C362.12,60.98 363.09,62.69 363.51,64.04 C364.21,66.23 364.12,66.34 362.64,65.12 C361.74,64.37 360.99,64.15 360.98,64.63 C360.98,65.11 360.58,64.89 360.11,64.14 C359.55,63.26 359.03,63.15 358.60,63.83 C358.25,64.41 358.80,65.70 359.83,66.69 C360.86,67.69 361.96,69.53 362.27,70.79 C362.73,72.67 362.51,72.98 361.00,72.50 C359.51,72.03 359.27,72.32 359.74,74.12 C360.13,75.59 359.95,76.08 359.20,75.62 C358.58,75.24 357.28,75.35 356.29,75.86 C352.54,77.81 345.87,80.33 344.47,80.33 C343.66,80.33 343.00,80.76 343.00,81.28 C343.00,81.81 342.06,81.99 340.90,81.69 C338.50,81.06 335.78,81.84 336.48,82.96 C336.73,83.38 335.72,83.52 334.22,83.28 C332.72,83.04 328.67,82.87 325.21,82.90 C321.06,82.93 319.13,82.59 319.56,81.91 C319.97,81.23 319.00,80.97 316.85,81.18 C314.83,81.37 313.60,82.00 313.75,82.75 C313.89,83.44 313.55,84.00 313.00,84.00 C312.45,84.00 312.00,83.65 312.00,83.23 C312.00,82.03 304.82,82.67 304.04,83.94 C303.65,84.56 302.59,84.78 301.68,84.43 C300.76,84.08 298.32,84.67 296.26,85.74 C291.77,88.06 286.59,89.47 287.40,88.15 C288.55,86.30 284.10,86.23 282.42,88.08 C281.49,89.11 280.40,89.74 279.98,89.49 C279.57,89.24 278.10,89.92 276.71,91.01 C275.32,92.11 273.27,93.00 272.16,93.00 C271.04,93.00 268.86,93.50 267.32,94.12 C264.65,95.18 258.68,96.25 256.50,96.05 C255.95,96.01 253.40,95.80 250.84,95.60 C248.28,95.40 245.80,95.04 245.34,94.80 C244.88,94.56 243.82,94.44 243.00,94.53 C242.18,94.62 240.56,94.76 239.41,94.85 C238.25,94.93 236.12,96.03 234.66,97.28 C232.48,99.15 232.00,100.41 232.00,104.29 C232.00,107.02 231.11,110.92 229.89,113.51 C228.32,116.85 227.95,118.95 228.46,121.75 C229.91,129.73 230.15,137.86 229.00,140.00 C228.36,141.20 227.63,143.37 227.38,144.84 C227.13,146.30 226.31,149.53 225.55,152.00 C223.02,160.28 222.94,161.64 224.80,164.13 C225.78,165.43 227.11,167.74 227.77,169.25 C228.42,170.76 229.33,172.00 229.79,172.00 C230.25,172.00 231.71,173.01 233.04,174.25 C234.37,175.49 235.69,176.52 235.98,176.54 C237.41,176.63 241.00,179.64 241.00,180.74 C241.00,181.99 242.24,182.41 244.85,182.05 C246.73,181.79 250.00,184.96 250.00,187.04 C250.00,187.99 250.67,190.06 251.49,191.64 C252.32,193.21 252.99,197.07 252.99,200.22 C253.00,205.26 250.77,218.82 249.25,223.00 C248.94,223.82 248.59,225.85 248.46,227.50 C248.32,229.15 248.11,230.72 247.99,231.00 C247.87,231.28 247.68,232.85 247.58,234.50 C247.48,236.15 247.03,240.98 246.58,245.23 L 245.77,252.96 L 248.43,253.97 C252.45,255.50 268.31,251.29 273.00,247.45 C276.49,244.60 294.04,237.96 304.56,235.52 C314.23,233.28 324.88,233.61 335.88,236.50 C350.14,240.25 352.00,241.07 352.00,243.59 C352.00,244.80 351.31,246.05 350.46,246.38 C349.61,246.70 333.97,250.35 315.71,254.49 C297.44,258.62 280.70,262.45 278.50,262.99 C257.59,268.12 229.80,274.13 229.30,273.63 C229.04,273.37 229.77,272.66 230.91,272.05 C233.33,270.75 233.69,266.83 231.58,264.73 C230.20,263.34 213.00,261.77 197.00,261.58 C191.14,261.51 184.00,263.43 184.00,265.08 C184.00,266.26 176.36,267.91 168.83,268.37 C156.53,269.11 149.83,272.98 143.54,282.93 C142.01,285.36 140.37,287.83 139.89,288.42 C135.73,293.60 132.00,299.26 132.00,300.39 C132.00,301.83 134.94,302.96 138.70,302.99 C139.91,302.99 141.26,303.57 141.70,304.27 C142.14,304.97 143.70,306.31 145.17,307.24 C147.62,308.80 148.20,308.81 152.38,307.39 C157.59,305.61 162.29,305.92 158.00,307.76 C156.62,308.34 153.56,310.92 151.18,313.47 C148.81,316.03 146.33,317.93 145.68,317.69 C145.03,317.45 142.98,317.88 141.13,318.63 C139.27,319.38 136.69,320.00 135.38,320.00 C134.07,320.00 133.00,320.37 133.00,320.82 C133.00,321.70 123.24,326.00 121.23,326.00 C120.55,326.00 120.00,326.34 120.00,326.76 C120.00,327.57 112.96,330.00 110.60,330.00 C109.81,330.00 107.04,330.91 104.45,332.02 C101.85,333.13 98.62,334.14 97.27,334.25 C95.72,334.38 94.29,335.47 93.38,337.23 C91.76,340.37 90.79,340.65 89.00,338.50 C88.05,337.36 88.01,335.99 88.83,332.78 C89.58,329.81 89.59,328.36 88.84,327.90 C87.59,327.13 84.00,327.91 84.00,328.96 C84.00,329.35 82.93,330.17 81.63,330.76 C79.43,331.76 76.10,337.39 74.53,342.75 C73.82,345.16 74.89,345.71 76.71,343.89 C78.26,342.34 80.00,343.67 80.00,346.40 C80.00,349.79 76.87,352.12 72.70,351.84 C68.87,351.58 62.00,354.67 62.00,356.66 C62.00,357.32 61.39,358.46 60.65,359.21 C59.91,359.95 58.75,362.24 58.07,364.30 C57.03,367.43 57.09,368.82 58.41,372.70 C60.41,378.57 60.42,381.41 58.44,383.05 C57.59,383.76 56.24,385.89 55.44,387.79 C53.80,391.72 53.49,402.57 55.00,403.50 C55.55,403.84 56.00,404.78 56.00,405.60 C56.00,406.41 56.97,408.40 58.16,410.01 C59.36,411.62 60.40,413.96 60.49,415.22 C60.61,416.90 61.36,417.58 63.35,417.82 C64.97,418.01 66.71,419.21 67.71,420.82 C68.63,422.29 70.90,425.41 72.76,427.75 C74.61,430.09 75.85,432.00 75.50,432.00 C74.42,432.00 70.61,429.76 69.07,428.21 C66.95,426.09 66.33,428.60 68.40,430.89 C70.40,433.10 70.46,435.00 68.53,435.00 C65.56,435.00 60.00,431.62 60.00,429.81 C60.00,428.82 59.55,428.00 59.00,428.00 C58.45,428.00 58.00,428.41 58.00,428.92 C58.00,429.42 57.76,430.45 57.48,431.20 C57.19,431.95 58.43,434.19 60.23,436.18 C64.60,441.02 66.00,443.50 66.00,446.36 C66.00,447.70 67.00,449.48 68.25,450.38 C70.43,451.96 70.36,451.99 66.00,451.44 C61.74,450.90 61.43,451.02 60.20,453.86 C58.75,457.19 58.55,459.07 58.82,466.80 C58.96,470.96 59.53,472.62 61.50,474.59 C62.88,475.97 64.00,477.50 64.00,478.01 C64.00,479.36 67.49,481.00 70.36,481.00 C71.73,481.00 73.59,481.74 74.49,482.64 C75.71,483.86 76.42,483.98 77.26,483.14 C77.89,482.51 79.35,482.00 80.50,482.00 C84.13,482.00 87.38,479.85 91.37,474.79 C93.49,472.10 95.50,470.17 95.84,470.50 C96.17,470.84 95.95,471.42 95.35,471.80 C94.10,472.59 92.71,477.92 92.49,482.75 C92.33,486.17 93.37,487.09 94.39,484.44 C94.72,483.58 95.44,483.15 95.99,483.50 C96.55,483.84 97.00,483.57 97.00,482.90 C97.00,481.03 104.38,474.45 106.11,474.78 C106.97,474.95 108.17,473.93 108.84,472.44 C109.58,470.83 110.59,470.01 111.45,470.34 C113.31,471.06 117.98,468.84 117.99,467.23 C118.00,465.89 119.80,465.01 126.67,462.97 C131.25,461.61 132.70,459.04 130.13,456.85 C128.30,455.29 118.72,452.00 116.01,452.00 C115.04,452.00 113.68,451.32 113.00,450.50 C112.32,449.68 111.34,449.00 110.83,449.00 C110.32,449.00 106.61,447.46 102.59,445.57 C95.58,442.29 94.00,440.76 94.00,437.25 C94.00,436.37 93.26,434.83 92.35,433.83 C90.76,432.08 90.93,432.00 96.43,432.00 C105.58,432.00 117.53,435.26 133.00,441.98 C138.22,444.25 143.85,446.69 145.50,447.40 C147.15,448.12 150.07,449.28 152.00,449.98 C155.64,451.32 167.23,456.45 170.23,458.06 C172.33,459.19 178.08,456.70 179.83,453.91 C180.82,452.31 180.48,451.27 177.63,447.26 C175.77,444.64 173.56,441.14 172.71,439.47 C170.63,435.35 165.36,429.75 159.35,425.25 C156.60,423.19 151.46,418.86 147.92,415.64 C141.80,410.06 140.75,409.54 125.67,404.47 C116.96,401.55 108.19,398.08 106.17,396.77 C104.15,395.46 101.05,393.80 99.28,393.08 C97.51,392.37 95.52,391.12 94.84,390.31 C93.79,389.04 94.15,388.94 97.47,389.56 C99.58,389.96 102.48,390.89 103.91,391.63 C105.33,392.38 107.36,392.99 108.40,392.99 C109.45,393.00 112.60,394.08 115.40,395.41 C123.19,399.09 128.69,400.50 130.24,399.22 C131.21,398.41 133.55,399.13 139.44,402.03 C143.79,404.18 147.60,406.28 147.92,406.72 C148.60,407.63 151.06,409.06 160.00,413.72 C163.57,415.59 168.75,418.37 171.50,419.89 C174.25,421.42 178.75,423.50 181.50,424.51 C184.25,425.53 189.20,428.43 192.50,430.95 C195.80,433.48 201.94,437.28 206.15,439.39 C210.35,441.50 215.53,444.98 217.65,447.12 C222.67,452.19 227.21,454.41 231.02,453.65 C232.66,453.32 234.00,453.19 234.00,453.37 C234.00,453.54 236.27,464.67 239.05,478.09 C241.83,491.52 244.96,506.77 246.02,512.00 C252.32,543.26 262.93,594.91 263.52,597.25 L 264.22,600.00 L 132.11,600.00 L 0.00,600.00 L 0.00,300.00 M 241.00,90.00 C241.00,89.45 240.52,89.00 239.94,89.00 C239.36,89.00 239.16,89.45 239.50,90.00 C239.84,90.55 240.32,91.00 240.56,91.00 C240.80,91.00 241.00,90.55 241.00,90.00 M 274.98,84.19 C274.99,83.47 274.55,83.16 274.00,83.50 C273.45,83.84 273.01,85.10 273.02,86.31 C273.03,88.09 273.21,88.22 274.00,87.00 C274.53,86.17 274.98,84.91 274.98,84.19 M 282.00,77.00 C282.00,76.45 281.55,76.00 281.00,76.00 C280.45,76.00 280.00,76.45 280.00,77.00 C280.00,77.55 280.45,78.00 281.00,78.00 C281.55,78.00 282.00,77.55 282.00,77.00 M 405.00,67.18 C405.00,64.43 401.94,56.00 400.94,56.00 C400.46,56.00 400.35,55.21 400.69,54.25 C401.04,53.29 400.99,52.79 400.60,53.15 C400.20,53.50 398.68,52.68 397.21,51.32 C395.75,49.96 394.39,49.33 394.19,49.92 C393.80,51.11 396.35,54.00 397.80,54.00 C398.76,54.00 402.00,64.27 402.00,67.32 C402.00,68.24 402.68,69.00 403.50,69.00 C404.32,69.00 405.00,68.18 405.00,67.18 M 375.00,63.00 C375.00,62.45 374.55,62.00 374.00,62.00 C373.45,62.00 373.00,62.45 373.00,63.00 C373.00,63.55 373.45,64.00 374.00,64.00 C374.55,64.00 375.00,63.55 375.00,63.00 M 406.50,63.00 C406.84,62.45 406.64,62.00 406.06,62.00 C405.48,62.00 405.00,62.45 405.00,63.00 C405.00,63.55 405.20,64.00 405.44,64.00 C405.68,64.00 406.16,63.55 406.50,63.00 M 376.00,60.00 C376.00,59.45 376.51,59.11 377.12,59.25 C379.17,59.70 379.15,57.18 377.11,56.53 C376.00,56.18 374.82,55.01 374.47,53.92 C374.13,52.82 372.89,51.05 371.73,49.97 C370.46,48.78 370.13,48.00 370.92,48.00 C371.66,48.00 371.97,47.36 371.64,46.50 C371.32,45.67 371.48,45.00 372.00,45.00 C372.52,45.00 372.70,44.37 372.40,43.60 C372.11,42.83 372.32,41.92 372.89,41.57 C374.10,40.82 373.23,38.00 371.79,38.00 C371.24,38.00 371.05,38.67 371.36,39.50 C371.68,40.33 371.70,41.00 371.41,41.00 C370.18,41.00 363.00,34.56 363.00,33.46 C363.00,31.91 356.94,30.66 355.66,31.94 C355.04,32.56 355.73,33.35 357.60,34.16 C362.33,36.21 371.00,41.90 371.00,42.96 C371.00,43.96 367.89,43.19 367.00,41.96 C366.73,41.58 365.49,40.95 364.25,40.57 C362.60,40.05 362.00,40.27 362.00,41.37 C362.00,43.23 363.99,44.63 364.03,42.81 C364.07,41.38 368.00,45.64 368.00,47.11 C368.00,47.60 367.31,48.00 366.46,48.00 C365.19,48.00 365.13,48.37 366.12,50.23 C367.30,52.42 367.28,52.43 364.91,50.72 C362.15,48.73 357.89,46.78 357.38,47.28 C357.20,47.47 359.62,49.27 362.77,51.29 C365.92,53.30 369.78,56.31 371.33,57.98 C374.21,61.04 376.00,61.82 376.00,60.00 M 391.61,49.53 C390.70,48.14 389.50,47.00 388.94,47.00 C388.38,47.00 388.84,47.98 389.96,49.19 C391.08,50.39 392.00,51.82 392.00,52.36 C392.00,52.89 392.29,53.05 392.64,52.70 C392.98,52.35 392.52,50.92 391.61,49.53 M 343.27,50.34 C342.59,50.07 341.24,50.05 340.27,50.31 C339.30,50.56 339.85,50.78 341.50,50.81 C343.15,50.83 343.95,50.62 343.27,50.34 M 378.47,48.15 C377.90,47.56 376.00,49.06 376.00,50.10 C376.00,50.64 376.63,50.50 377.40,49.79 C378.17,49.08 378.65,48.34 378.47,48.15 M 386.00,46.51 C386.00,45.42 382.47,42.00 381.35,42.00 C380.68,42.00 381.10,43.09 382.33,44.48 C384.33,46.77 386.00,47.69 386.00,46.51 M 343.50,44.57 C344.05,44.41 342.73,43.78 340.57,43.17 C337.74,42.37 336.27,42.36 335.33,43.14 C334.61,43.74 334.21,44.54 334.45,44.92 C334.83,45.54 340.94,45.30 343.50,44.57 M 392.51,41.03 C391.86,38.98 383.21,30.00 381.89,30.00 C379.99,30.00 380.17,32.00 382.21,33.43 C383.96,34.66 384.08,35.00 382.79,35.00 C381.88,35.00 379.91,34.54 378.43,33.97 C376.94,33.41 375.50,33.17 375.22,33.44 C374.95,33.72 376.02,34.44 377.61,35.04 C379.20,35.64 381.51,37.08 382.75,38.24 C383.99,39.40 385.01,39.93 385.02,39.42 C385.02,38.92 385.42,39.12 385.91,39.88 C386.39,40.64 387.80,41.32 389.06,41.38 C390.31,41.45 391.54,42.13 391.80,42.89 C392.08,43.73 391.81,44.00 391.14,43.59 C390.41,43.14 390.25,43.48 390.66,44.56 C391.25,46.09 391.37,46.09 392.21,44.59 C392.71,43.69 392.85,42.09 392.51,41.03 M 353.49,41.98 C353.14,41.42 352.44,41.23 351.92,41.55 C351.40,41.87 349.56,41.43 347.83,40.57 C346.11,39.71 343.86,39.00 342.85,39.00 C341.83,39.00 341.00,38.55 341.00,38.00 C341.00,37.45 339.76,37.01 338.25,37.02 C336.03,37.03 335.79,37.24 337.00,38.10 C338.13,38.91 337.66,39.02 335.07,38.57 C333.18,38.24 330.89,37.31 329.99,36.49 C329.08,35.67 326.80,35.06 324.92,35.14 C322.47,35.23 322.15,35.40 323.81,35.71 C325.08,35.96 326.36,36.77 326.64,37.51 C326.93,38.26 327.80,38.63 328.58,38.33 C330.56,37.57 330.36,39.02 328.27,40.54 C326.84,41.59 327.63,41.73 333.02,41.33 C336.59,41.06 341.30,41.28 343.50,41.82 C348.99,43.16 354.27,43.25 353.49,41.98 M 400.00,41.70 C400.00,39.42 393.65,33.98 392.10,34.94 C391.04,35.59 391.58,36.35 394.34,38.15 C396.34,39.44 397.98,41.06 397.99,41.75 C397.99,42.44 398.45,43.00 399.00,43.00 C399.55,43.00 400.00,42.41 400.00,41.70 M 350.50,40.00 C350.16,39.45 349.35,39.01 348.69,39.02 C347.98,39.02 348.10,39.42 349.00,40.00 C350.92,41.24 351.27,41.24 350.50,40.00 M 350.50,36.48 C347.48,34.99 343.92,34.06 341.50,34.13 L 337.50,34.24 L 342.17,35.02 C344.73,35.46 348.11,36.48 349.67,37.30 C351.22,38.12 353.18,38.82 354.00,38.86 C354.82,38.90 353.25,37.83 350.50,36.48 M 376.00,38.00 C376.00,37.45 375.52,37.00 374.94,37.00 C374.36,37.00 374.16,37.45 374.50,38.00 C374.84,38.55 375.32,39.00 375.56,39.00 C375.80,39.00 376.00,38.55 376.00,38.00 M 336.00,31.00 C336.00,30.45 335.52,30.00 334.94,30.00 C334.36,30.00 334.16,30.45 334.50,31.00 C334.84,31.55 335.32,32.00 335.56,32.00 C335.80,32.00 336.00,31.55 336.00,31.00 M 376.00,31.00 C376.00,30.45 375.55,30.00 375.00,30.00 C374.45,30.00 374.00,30.45 374.00,31.00 C374.00,31.55 374.45,32.00 375.00,32.00 C375.55,32.00 376.00,31.55 376.00,31.00 M 381.00,26.00 C381.00,25.45 380.30,25.00 379.44,25.00 C378.58,25.00 378.16,25.45 378.50,26.00 C378.84,26.55 379.54,27.00 380.06,27.00 C380.58,27.00 381.00,26.55 381.00,26.00 M 389.00,24.53 C389.00,23.74 382.85,20.81 382.32,21.35 C382.05,21.62 383.10,22.54 384.66,23.38 C387.60,24.97 389.00,25.34 389.00,24.53 M 143.71,17.75 C143.47,16.51 143.27,17.52 143.27,20.00 C143.27,22.48 143.47,23.49 143.71,22.25 C143.94,21.01 143.94,18.99 143.71,17.75 M 319.27,15.34 C318.59,15.07 317.24,15.05 316.27,15.31 C315.30,15.56 315.85,15.78 317.50,15.81 C319.15,15.83 319.95,15.62 319.27,15.34 M 360.25,15.34 C359.56,15.06 358.44,15.06 357.75,15.34 C357.06,15.62 357.62,15.84 359.00,15.84 C360.38,15.84 360.94,15.62 360.25,15.34 M 309.12,599.55 C309.37,599.30 325.31,595.95 344.54,592.11 C386.39,583.75 415.61,577.66 426.50,575.02 C430.90,573.96 440.44,571.71 447.70,570.03 C454.95,568.35 463.84,566.06 467.45,564.94 C473.85,562.97 474.00,562.84 474.00,559.49 C474.00,557.61 472.69,550.54 471.09,543.78 C469.50,537.03 467.64,529.02 466.96,526.00 C466.29,522.98 465.34,520.00 464.86,519.39 C464.38,518.77 459.62,517.95 454.28,517.56 C445.87,516.94 444.42,517.07 443.37,518.51 C442.27,520.01 441.99,519.92 440.46,517.58 C438.26,514.22 436.21,514.29 435.82,517.74 C435.39,521.46 432.51,521.94 432.22,518.35 C432.09,516.86 431.22,514.48 430.28,513.07 C428.81,510.86 428.52,510.75 428.20,512.30 C428.00,513.28 428.24,515.31 428.73,516.80 C430.46,522.04 427.91,525.51 426.00,520.50 C425.40,518.93 424.27,518.00 422.96,518.00 C417.06,518.00 415.23,513.55 419.50,509.59 C422.40,506.90 422.55,505.56 420.49,500.64 C417.95,494.54 420.11,494.28 370.87,506.51 C349.63,511.78 306.11,521.25 274.07,527.57 C269.98,528.38 266.33,528.69 265.96,528.27 C265.01,527.20 252.77,465.90 253.37,465.29 C253.65,465.02 267.20,462.15 283.49,458.92 C321.44,451.39 363.57,442.40 367.75,440.94 C371.48,439.64 371.90,438.42 368.94,437.48 C367.81,437.12 366.38,435.74 365.78,434.41 C365.17,433.09 364.35,432.00 363.96,432.00 C362.21,432.00 356.88,425.25 355.97,421.89 C354.68,417.09 355.93,413.84 361.03,408.73 C363.21,406.55 365.00,404.21 365.00,403.54 C365.00,402.86 365.90,401.50 367.00,400.50 C370.38,397.44 369.41,396.70 362.75,397.31 C358.50,397.69 357.56,397.61 359.80,397.05 C364.46,395.90 372.00,392.94 372.00,392.28 C372.00,391.97 371.21,391.12 370.25,390.39 C368.60,389.14 368.61,389.06 370.42,389.03 C371.48,389.01 373.14,388.28 374.11,387.40 C375.53,386.11 375.66,385.42 374.75,383.97 C373.80,382.46 374.03,381.78 376.05,380.10 C377.40,378.98 379.06,378.26 379.75,378.50 C380.44,378.74 381.00,378.28 381.00,377.47 C381.00,376.66 380.32,376.00 379.50,376.00 C377.29,376.00 377.68,373.34 380.13,371.62 C381.57,370.61 382.09,369.45 381.73,368.06 C381.10,365.68 386.77,360.35 391.00,359.33 C392.38,359.00 395.30,357.94 397.50,356.96 C404.45,353.88 411.98,354.34 412.02,357.86 C412.03,359.20 412.19,359.25 412.92,358.10 C413.60,357.02 415.23,356.84 419.86,357.33 C423.18,357.68 426.13,357.59 426.41,357.15 C427.09,356.04 420.21,326.81 418.98,325.58 C416.98,323.58 418.12,322.84 422.19,323.53 C424.49,323.92 431.38,326.85 437.49,330.04 C443.61,333.23 450.22,336.14 452.19,336.51 C456.54,337.32 461.99,340.50 462.01,342.24 C462.02,342.93 463.82,347.07 466.01,351.44 C468.21,355.81 470.00,359.58 470.00,359.83 C470.00,360.07 466.74,360.03 462.75,359.74 C457.26,359.35 454.77,359.61 452.50,360.81 C450.48,361.88 450.00,362.51 451.03,362.73 C453.65,363.30 455.09,366.62 453.99,369.53 C453.44,370.96 453.00,373.50 453.00,375.17 C453.00,377.51 451.90,379.24 448.25,382.65 C445.64,385.09 442.15,387.69 440.50,388.42 C434.97,390.87 429.85,397.43 422.83,411.03 C416.15,424.01 415.93,424.64 415.56,432.95 C415.34,437.65 415.47,444.10 415.83,447.27 L 416.50,453.04 L 420.20,450.52 C424.03,447.91 432.98,435.52 436.11,428.50 C438.37,423.43 444.88,417.20 452.20,413.10 C455.33,411.35 458.97,408.64 460.27,407.09 C462.44,404.51 463.10,404.30 467.74,404.75 C470.53,405.02 475.90,404.70 479.66,404.04 C488.76,402.45 506.68,401.72 508.71,402.86 C510.72,403.98 511.27,403.80 491.71,408.45 C473.46,412.79 472.72,413.14 474.09,416.75 C474.66,418.24 475.60,419.75 476.18,420.11 C477.43,420.89 478.30,435.83 477.42,441.32 C476.85,444.81 472.28,451.01 470.28,450.99 C468.79,450.98 460.16,461.23 459.52,463.79 C459.16,465.20 457.59,469.09 456.03,472.43 C453.40,478.06 453.27,478.92 454.22,484.00 C454.79,487.03 456.10,490.39 457.14,491.48 C459.01,493.45 459.03,493.45 461.40,490.89 C462.71,489.48 464.47,486.99 465.32,485.35 C467.21,481.69 478.60,467.68 483.33,463.21 C485.24,461.39 487.84,458.40 489.11,456.55 C490.77,454.13 492.40,453.03 494.97,452.62 C496.93,452.31 503.47,450.10 509.52,447.71 C516.80,444.83 523.53,442.95 529.50,442.13 C539.48,440.75 542.41,439.78 555.50,433.51 C564.88,429.02 571.42,427.25 572.44,428.91 C572.77,429.44 572.43,430.46 571.67,431.16 C570.92,431.86 570.51,433.24 570.76,434.21 C571.03,435.24 570.55,436.23 569.61,436.59 C568.73,436.94 568.00,437.79 568.00,438.50 C568.00,440.03 563.82,441.25 561.57,440.39 C560.44,439.96 560.14,440.21 560.55,441.27 C560.87,442.10 560.10,443.81 558.81,445.13 C556.12,447.89 548.29,452.01 545.75,452.00 C544.79,452.00 544.00,452.34 544.00,452.76 C544.00,453.17 542.54,454.10 540.75,454.83 C534.40,457.40 528.48,460.40 527.18,461.69 C526.45,462.41 524.65,463.01 523.18,463.01 C521.71,463.02 519.38,463.69 518.00,464.50 C516.62,465.31 514.71,466.25 513.75,466.60 C512.79,466.95 512.00,467.80 512.00,468.49 C512.00,469.19 511.36,470.29 510.57,470.94 C509.19,472.09 509.44,478.77 510.90,480.00 C512.45,481.29 514.38,485.84 514.74,489.00 C514.96,490.93 515.22,496.17 515.32,500.66 C515.42,505.15 515.84,509.16 516.25,509.58 C516.66,509.99 517.00,509.60 517.00,508.71 C517.00,507.64 518.22,506.86 520.60,506.42 C523.84,505.81 526.91,504.28 542.00,495.74 C544.48,494.34 549.20,492.42 552.50,491.49 C555.80,490.55 559.28,489.38 560.24,488.89 C562.57,487.69 566.00,487.76 566.00,489.00 C566.00,489.55 566.72,490.00 567.61,490.00 C568.64,490.00 569.00,490.55 568.63,491.53 C568.21,492.63 568.88,493.23 571.02,493.65 C572.66,493.98 574.00,494.61 574.00,495.04 C574.00,495.48 576.04,496.61 578.53,497.57 C583.78,499.57 584.64,500.53 582.96,502.54 C582.11,503.57 582.09,504.00 582.88,504.00 C583.49,504.00 584.00,504.75 584.00,505.67 C584.00,506.59 584.60,508.05 585.32,508.92 C586.05,509.79 587.25,512.52 588.00,515.00 C588.75,517.48 589.86,520.17 590.47,521.00 C591.08,521.83 592.21,523.74 592.96,525.25 C593.72,526.76 594.94,528.00 595.67,528.00 C596.40,528.00 597.00,528.62 597.00,529.38 C597.00,530.14 597.67,531.32 598.50,532.00 C599.78,533.06 600.00,538.17 600.00,566.62 L 600.00,600.00 L 454.33,600.00 C374.22,600.00 308.87,599.80 309.12,599.55 M 277.25,519.31 C277.66,519.07 278.00,516.46 278.00,513.50 C278.00,507.61 278.04,507.55 282.73,506.54 C285.88,505.87 286.02,505.98 288.44,511.45 C291.05,517.35 291.26,517.45 297.75,515.45 C300.16,514.70 298.95,510.84 290.56,492.50 C288.80,488.65 285.59,481.32 283.43,476.22 L 279.50,466.94 L 274.50,467.57 C271.75,467.92 269.10,468.58 268.61,469.05 C267.63,469.97 267.65,494.50 268.65,510.77 L 269.28,521.04 L 272.89,520.39 C274.87,520.03 276.84,519.54 277.25,519.31 M 424.00,512.94 C424.00,510.85 422.53,510.34 421.47,512.05 C420.56,513.52 421.77,516.26 422.99,515.50 C423.55,515.16 424.00,514.01 424.00,512.94 M 309.87,512.64 C310.38,512.02 310.96,507.10 311.15,501.71 C311.48,492.48 312.27,490.10 315.01,490.02 C315.29,490.01 316.52,494.57 317.74,500.14 C318.96,505.72 320.13,510.46 320.34,510.68 C321.19,511.52 328.91,509.69 329.35,508.54 C329.61,507.86 329.00,503.75 328.00,499.41 C327.00,495.06 324.72,484.30 322.94,475.50 C321.15,466.70 319.43,459.18 319.10,458.80 C318.40,457.98 311.14,459.46 309.93,460.67 C309.48,461.13 309.97,465.32 311.03,470.00 C312.08,474.68 312.95,478.95 312.96,479.50 C312.97,480.05 310.28,476.31 306.98,471.19 C302.44,464.14 300.55,461.99 299.24,462.36 C298.28,462.63 296.04,463.15 294.25,463.50 C292.46,463.86 291.00,464.57 291.00,465.08 C291.00,465.58 294.35,470.32 298.45,475.60 L 305.90,485.21 L 303.85,487.99 C302.19,490.23 301.69,492.80 301.26,501.30 C300.96,507.09 300.96,512.46 301.26,513.23 C301.89,514.88 308.40,514.44 309.87,512.64 M 512.00,514.00 C512.00,513.45 511.55,513.00 511.00,513.00 C510.45,513.00 510.00,513.45 510.00,514.00 C510.00,514.55 510.45,515.00 511.00,515.00 C511.55,515.00 512.00,514.55 512.00,514.00 M 358.55,503.28 C359.13,502.10 361.45,499.36 363.69,497.18 C369.00,492.04 370.41,487.61 369.71,478.35 C368.70,465.00 362.01,455.35 352.53,453.57 C350.62,453.21 348.64,452.17 348.13,451.26 C347.35,449.88 346.54,449.76 343.36,450.55 C341.07,451.12 339.39,452.18 339.20,453.18 C339.03,454.10 336.93,456.81 334.54,459.20 C326.83,466.91 325.99,478.50 332.25,491.00 C335.84,498.18 339.72,501.44 345.93,502.49 C348.49,502.92 349.97,503.76 350.28,504.97 C350.67,506.47 351.36,506.67 354.12,506.11 C356.08,505.71 357.92,504.53 358.55,503.28 M 383.75,496.25 C384.44,495.35 385.00,492.53 385.00,489.98 C385.00,485.53 385.15,485.29 388.55,484.25 L 392.10,483.16 L 394.52,488.63 L 396.94,494.10 L 400.72,493.42 C405.23,492.61 406.00,492.22 406.00,490.81 C406.00,489.62 396.55,480.00 395.38,480.00 C394.98,480.00 393.83,479.25 392.83,478.34 C391.82,477.43 389.31,476.41 387.25,476.08 C383.97,475.55 383.47,475.10 383.24,472.49 C382.25,460.85 378.33,447.33 375.75,446.65 C374.79,446.39 373.74,446.61 373.42,447.13 C372.81,448.12 373.64,479.18 374.62,491.84 L 375.19,499.19 L 378.84,498.53 C380.85,498.17 383.06,497.14 383.75,496.25 M 428.58,453.56 C429.34,450.53 428.16,448.14 426.89,450.14 C425.71,452.00 425.78,456.00 426.98,456.00 C427.52,456.00 428.24,454.90 428.58,453.56 M 440.75,450.28 L 447.00,447.55 L 447.00,442.78 C447.00,437.18 446.87,437.14 438.00,440.37 C431.63,442.68 431.50,442.80 431.61,446.27 C431.73,450.30 432.57,453.00 433.72,453.00 C434.15,453.00 437.31,451.78 440.75,450.28 M 276.54,583.07 C275.71,581.73 273.79,568.88 274.34,568.33 C274.65,568.02 293.49,564.03 316.20,559.47 C359.17,550.84 376.22,547.25 401.50,541.53 C441.20,532.54 448.29,531.00 449.88,531.00 C452.40,531.00 455.39,543.02 453.20,544.37 C452.16,545.02 430.30,550.69 422.00,552.47 C418.43,553.23 405.60,556.17 393.50,558.99 C367.84,564.98 352.06,568.36 298.23,579.39 C286.53,581.78 276.77,583.44 276.54,583.07 M 406.00,549.00 C406.00,548.45 405.80,548.00 405.56,548.00 C405.32,548.00 404.84,548.45 404.50,549.00 C404.16,549.55 404.36,550.00 404.94,550.00 C405.52,550.00 406.00,549.55 406.00,549.00 M 283.50,546.35 C284.60,546.12 287.86,545.23 290.73,544.38 C293.61,543.52 296.54,543.02 297.23,543.26 C299.02,543.87 287.80,547.02 284.35,546.88 C282.39,546.80 282.13,546.64 283.50,546.35 M 323.00,546.00 C323.82,545.47 325.40,545.03 326.50,545.03 C328.16,545.03 328.24,545.20 327.00,546.00 C326.18,546.53 324.60,546.97 323.50,546.97 C321.84,546.97 321.76,546.80 323.00,546.00 M 331.81,544.32 C332.53,544.03 333.40,544.06 333.73,544.40 C334.06,544.73 333.47,544.96 332.42,544.92 C331.25,544.87 331.01,544.64 331.81,544.32 M 300.75,542.34 C301.44,542.06 302.56,542.06 303.25,542.34 C303.94,542.62 303.38,542.84 302.00,542.84 C300.62,542.84 300.06,542.62 300.75,542.34 M 306.81,541.32 C307.53,541.03 308.40,541.06 308.73,541.40 C309.06,541.73 308.47,541.96 307.42,541.92 C306.25,541.87 306.01,541.64 306.81,541.32 M 353.00,538.65 C353.00,537.77 354.35,536.35 356.00,535.50 C360.93,532.95 359.21,525.85 354.06,527.48 C352.94,527.84 351.54,527.83 350.96,527.48 C348.99,526.26 352.11,524.00 355.76,524.00 C360.27,524.00 363.00,527.01 363.00,532.00 C363.00,536.29 360.86,538.68 356.18,539.61 C353.67,540.12 353.00,539.91 353.00,538.65 M 285.50,538.00 C285.84,537.45 286.32,537.00 286.56,537.00 C286.80,537.00 287.00,537.45 287.00,538.00 C287.00,538.55 286.52,539.00 285.94,539.00 C285.36,539.00 285.16,538.55 285.50,538.00 M 288.00,537.00 C288.00,536.45 288.45,536.00 289.00,536.00 C289.55,536.00 290.00,536.45 290.00,537.00 C290.00,537.55 289.55,538.00 289.00,538.00 C288.45,538.00 288.00,537.55 288.00,537.00 M 365.00,535.60 C365.00,534.83 366.35,533.73 368.00,533.15 C373.76,531.14 371.08,523.12 365.16,524.67 C362.31,525.41 362.18,522.40 365.02,521.49 C373.09,518.93 378.96,529.20 372.57,534.69 C369.59,537.26 365.00,537.81 365.00,535.60 M 389.88,533.00 C389.48,526.68 389.31,525.12 388.62,521.35 C388.11,518.57 388.23,516.97 389.00,516.50 C390.58,515.52 390.99,516.15 392.40,521.67 C393.34,525.35 394.09,526.50 395.57,526.50 C397.19,526.50 397.43,525.94 397.09,523.00 C396.28,516.22 396.46,514.50 397.97,514.50 C398.92,514.50 399.76,516.11 400.33,519.00 C402.02,527.53 401.84,528.36 398.04,529.60 C396.14,530.23 393.95,531.69 393.17,532.87 C391.39,535.54 390.04,535.60 389.88,533.00 M 378.00,532.77 C378.00,531.97 379.12,530.81 380.50,530.18 C383.79,528.68 383.70,526.85 380.35,527.21 C376.83,527.60 376.30,525.64 379.53,524.17 C382.68,522.73 382.00,521.09 378.52,521.75 C375.26,522.37 375.01,519.50 378.25,518.63 C383.65,517.18 384.60,517.74 385.83,523.08 C387.19,528.96 387.31,531.69 386.24,532.35 C385.83,532.61 383.80,533.13 381.74,533.52 C378.82,534.07 378.00,533.91 378.00,532.77 M 312.81,532.32 C313.53,532.03 314.40,532.06 314.73,532.40 C315.06,532.73 314.47,532.96 313.42,532.92 C312.25,532.87 312.01,532.64 312.81,532.32 M 405.63,524.93 C403.63,523.35 403.00,521.96 403.00,519.12 C403.00,514.16 404.81,511.90 408.85,511.79 C412.81,511.67 415.70,514.25 416.59,518.69 C417.10,521.27 416.74,522.35 414.66,524.43 C411.55,527.54 409.13,527.67 405.63,524.93 M 411.80,522.80 C413.49,521.11 413.29,517.98 411.35,515.83 C409.10,513.35 408.13,513.53 406.95,516.63 C406.19,518.64 406.32,519.84 407.50,521.63 C409.24,524.30 410.07,524.53 411.80,522.80 M 255.52,460.75 C253.71,455.29 253.31,452.09 254.31,451.09 C255.11,450.29 255.10,448.82 254.27,445.72 C253.64,443.37 252.83,439.16 252.45,436.36 C251.80,431.44 251.87,431.26 254.41,430.77 C255.86,430.49 257.20,430.55 257.38,430.88 C257.56,431.22 258.52,435.44 259.51,440.25 C261.22,448.55 261.45,449.00 263.91,448.98 C268.70,448.96 268.94,448.17 266.92,439.00 C265.88,434.32 265.24,429.94 265.49,429.25 C265.74,428.56 266.99,428.00 268.28,428.00 C270.45,428.00 270.80,428.81 272.95,438.75 C274.24,444.66 275.33,449.88 275.39,450.34 C275.57,451.70 272.92,452.78 266.25,454.07 C260.39,455.20 260.00,455.44 260.00,458.03 C260.00,459.62 259.33,461.04 258.42,461.39 C256.24,462.23 256.00,462.18 255.52,460.75 M 282.18,445.31 C278.35,427.15 278.32,425.00 281.85,425.00 C283.28,425.00 284.05,426.13 284.90,429.51 C285.96,433.73 286.22,433.99 288.77,433.43 C294.02,432.28 294.00,432.31 293.36,427.64 C292.82,423.69 292.99,423.14 294.95,422.51 C296.16,422.13 297.29,421.97 297.45,422.16 C297.62,422.35 298.96,427.62 300.45,433.88 C303.21,445.53 303.04,447.54 299.36,446.83 C298.09,446.59 297.15,445.05 296.42,441.99 C295.25,437.18 295.20,437.15 290.19,438.37 C287.09,439.13 286.93,439.38 287.61,442.34 C288.97,448.29 288.69,449.48 285.85,449.81 C283.41,450.09 283.11,449.71 282.18,445.31 M 595.92,440.29 C593.61,435.75 591.15,432.59 588.33,430.54 C585.38,428.39 583.49,425.89 581.86,422.00 C576.83,409.91 571.34,403.06 564.90,400.82 C562.61,400.02 561.72,398.66 559.92,393.17 C556.88,383.95 554.72,379.92 550.53,375.73 C546.04,371.24 540.03,369.24 528.44,368.40 L 519.38,367.74 L 510.55,359.18 C501.60,350.51 492.94,339.55 482.65,323.88 C476.13,313.96 472.15,310.88 462.29,308.15 C458.54,307.11 450.98,304.35 445.49,302.02 C433.58,296.97 421.80,293.27 415.88,292.72 L 411.57,292.32 L 409.35,283.00 C408.12,277.88 406.82,271.87 406.44,269.65 L 405.76,265.61 L 408.31,267.28 C409.71,268.20 413.94,269.81 417.71,270.85 C421.48,271.90 427.25,274.08 430.53,275.70 C433.82,277.31 438.52,279.22 441.00,279.92 C443.48,280.63 447.90,282.06 450.83,283.10 C453.76,284.14 459.16,285.68 462.83,286.53 C469.89,288.15 490.15,295.98 495.58,299.18 C497.36,300.23 501.78,301.94 505.41,302.97 C509.03,304.01 513.91,306.15 516.25,307.74 C524.19,313.11 531.50,318.31 532.00,318.94 C533.73,321.11 538.86,324.15 542.38,325.09 C544.65,325.69 547.85,327.20 549.50,328.45 C551.15,329.69 553.48,331.02 554.67,331.40 C557.74,332.37 564.18,338.70 567.49,344.00 C569.04,346.48 571.80,350.05 573.62,351.93 L 576.93,355.37 L 579.34,352.76 C581.13,350.84 582.05,350.45 582.88,351.28 C583.71,352.11 584.00,351.90 584.00,350.48 C584.00,348.74 584.16,348.78 585.62,350.86 C586.80,352.55 587.11,354.64 586.78,358.64 L 586.33,364.11 L 590.57,366.60 C593.53,368.33 595.59,368.89 597.37,368.44 L 599.92,367.80 L 599.98,407.40 C600.01,429.18 599.88,447.00 599.69,447.00 C599.50,447.00 597.81,443.98 595.92,440.29 M 310.35,435.75 C310.70,431.21 310.99,426.07 310.99,424.32 C311.00,420.55 313.23,418.00 316.52,418.00 C318.48,418.00 319.85,419.71 324.44,427.90 C327.50,433.34 330.00,438.25 330.00,438.79 C330.00,439.76 327.73,441.00 325.97,441.00 C325.50,441.00 324.52,439.81 323.80,438.36 C323.09,436.91 322.16,435.78 321.75,435.86 C321.34,435.94 320.09,436.00 318.97,436.00 C316.90,436.00 316.62,436.43 315.56,441.25 C315.09,443.40 314.39,444.00 312.33,444.00 L 309.70,444.00 L 310.35,435.75 M 320.00,431.32 C320.00,429.67 317.52,424.00 316.80,424.00 C316.36,424.00 316.00,425.80 316.00,428.00 C316.00,431.33 316.33,432.00 318.00,432.00 C319.10,432.00 320.00,431.69 320.00,431.32 M 345.31,432.25 C344.44,428.56 344.34,428.50 339.60,428.47 C334.05,428.44 331.00,425.78 331.00,420.96 C331.00,416.51 334.52,413.73 341.63,412.55 L 345.76,411.86 L 348.38,423.04 C349.81,429.18 350.74,434.61 350.44,435.10 C350.13,435.60 349.05,436.00 348.04,436.00 C346.74,436.00 345.94,434.90 345.31,432.25 M 341.86,424.11 C342.79,423.52 343.00,422.28 342.53,420.14 C341.70,416.37 341.16,415.99 338.25,417.09 C335.50,418.13 335.18,422.43 337.75,423.92 C339.90,425.17 340.16,425.18 341.86,424.11 M 219.96,418.90 C206.84,406.65 200.58,401.92 185.83,393.12 C183.81,391.92 178.63,388.23 174.33,384.93 C170.02,381.62 162.34,376.80 157.25,374.21 C151.97,371.53 147.73,368.70 147.40,367.65 C147.07,366.63 144.80,364.91 142.35,363.83 C138.84,362.28 138.03,361.48 138.50,360.01 C138.82,358.98 138.41,356.52 137.58,354.54 C136.17,351.17 136.20,350.80 138.04,348.96 C139.42,347.58 141.39,346.99 144.75,346.97 C147.36,346.95 151.97,345.93 155.00,344.71 C159.56,342.85 160.51,342.05 160.54,339.99 C160.59,337.11 162.82,337.08 166.98,339.90 C168.37,340.84 173.32,342.87 178.00,344.41 C182.68,345.95 189.73,348.52 193.68,350.11 C197.63,351.70 201.74,353.00 202.81,353.00 C203.88,353.00 205.35,353.71 206.07,354.58 C206.79,355.46 210.56,357.76 214.44,359.70 C218.32,361.65 223.59,364.76 226.13,366.62 C228.68,368.48 231.18,370.00 231.69,370.00 C232.19,370.00 234.12,371.56 235.98,373.47 C239.16,376.76 239.27,377.10 237.95,379.72 C237.19,381.25 236.38,382.91 236.15,383.40 C235.64,384.49 241.39,383.44 245.24,381.73 C247.08,380.92 248.00,379.76 248.00,378.26 C248.00,377.02 248.46,376.00 249.03,376.00 C250.91,376.00 251.08,378.56 249.46,382.45 C248.18,385.51 248.11,386.45 249.13,387.08 C249.83,387.51 250.88,387.59 251.45,387.24 C252.03,386.90 251.93,387.32 251.22,388.19 C250.17,389.49 250.23,389.87 251.54,390.38 C252.41,390.71 252.85,391.44 252.50,391.99 C252.16,392.55 252.56,393.00 253.38,393.00 C254.21,393.00 255.16,392.55 255.50,392.00 C255.84,391.45 255.64,391.00 255.06,391.00 C254.48,391.00 254.00,390.30 254.00,389.44 C254.00,388.58 254.42,388.14 254.94,388.46 C255.46,388.78 255.91,388.25 255.96,387.27 C256.00,386.30 256.14,383.93 256.27,382.00 C256.48,378.82 256.27,378.52 254.00,378.74 C251.59,378.97 251.57,378.92 253.44,377.49 C254.51,376.67 255.86,376.00 256.44,376.00 C257.11,376.00 257.46,373.27 257.38,368.71 C257.19,358.01 256.39,355.33 253.04,354.16 C251.47,353.62 248.31,351.47 246.01,349.39 C242.10,345.86 241.96,345.56 243.91,344.84 C245.78,344.15 245.86,343.79 244.75,341.28 C244.07,339.75 242.49,337.68 241.25,336.68 C237.91,333.97 238.34,331.30 242.25,330.46 C244.04,330.07 246.79,329.10 248.37,328.29 C249.95,327.48 252.20,326.69 253.37,326.52 C265.37,324.79 271.72,323.54 272.80,322.69 C273.76,321.93 274.25,322.23 274.67,323.84 C275.40,326.63 276.56,326.59 277.54,323.75 C278.24,321.69 278.34,321.77 278.71,324.68 C279.10,327.71 282.00,331.64 282.00,329.12 C282.00,328.51 282.45,328.00 283.00,328.00 C284.69,328.00 284.11,330.89 282.00,333.00 C280.89,334.11 280.00,336.33 280.00,337.99 C280.00,340.48 279.40,341.23 276.32,342.51 C273.64,343.63 272.94,344.34 273.75,345.15 C274.36,345.76 275.90,345.99 277.18,345.67 C280.51,344.83 281.48,345.23 281.66,347.50 C281.92,350.64 283.15,354.00 284.05,354.00 C284.50,354.00 286.00,353.57 287.39,353.04 C289.82,352.12 289.90,351.82 289.50,345.04 C289.25,340.93 289.48,338.00 290.04,338.00 C290.57,338.00 291.00,339.96 291.00,342.37 C291.00,345.27 291.69,347.61 293.07,349.37 C297.39,354.86 298.01,352.22 295.05,340.93 C293.42,334.73 293.31,333.17 294.39,331.50 C296.33,328.50 297.01,323.62 295.96,320.38 C295.11,317.80 295.06,317.91 295.47,321.50 L 295.93,325.50 L 294.49,322.32 C293.70,320.57 291.86,317.95 290.41,316.50 C288.25,314.34 287.86,313.22 288.32,310.44 C288.62,308.57 288.45,306.78 287.93,306.46 C286.71,305.70 286.76,297.92 288.00,296.00 C288.53,295.18 289.00,294.73 289.04,295.00 C289.08,295.27 289.30,297.23 289.52,299.34 C290.40,307.72 290.66,307.82 305.00,305.46 C312.81,304.17 329.41,302.64 324.25,303.68 C323.01,303.93 322.00,304.58 322.00,305.11 C322.00,305.67 320.40,305.85 318.25,305.53 C315.65,305.15 315.11,305.25 316.50,305.85 C318.25,306.61 318.06,306.81 315.00,307.43 C313.07,307.83 310.10,308.78 308.39,309.55 C306.68,310.33 304.21,311.39 302.89,311.92 L 300.50,312.87 L 303.00,312.96 L 305.50,313.04 L 303.13,314.87 L 300.76,316.69 L 302.48,324.60 C303.43,328.94 304.57,333.22 305.01,334.09 C305.45,334.96 305.41,336.31 304.92,337.09 C304.43,337.87 304.04,339.62 304.05,341.00 L 304.07,343.50 L 305.82,341.40 C308.37,338.35 311.34,336.97 313.05,338.05 C313.85,338.55 315.25,338.72 316.16,338.44 C317.15,338.13 318.42,338.77 319.29,340.00 L 320.75,342.08 L 321.31,339.94 C322.03,337.18 324.00,338.37 324.00,341.56 C324.00,343.33 324.55,344.00 326.00,344.00 C327.10,344.00 328.02,344.56 328.04,345.25 C328.05,345.94 328.64,345.48 329.33,344.24 C330.31,342.47 330.84,342.24 331.79,343.19 C332.46,343.86 333.00,344.85 333.00,345.40 C333.00,345.94 334.12,348.00 335.48,349.97 C338.43,354.22 339.88,360.00 338.00,360.00 C337.05,360.00 337.03,360.33 337.91,361.39 C338.55,362.16 339.24,364.17 339.46,365.87 C339.67,367.56 340.15,369.43 340.52,370.03 C340.89,370.64 340.42,371.98 339.48,373.02 C338.22,374.42 337.94,375.80 338.44,378.21 C338.81,380.02 339.11,382.62 339.10,384.00 C339.09,385.38 339.36,387.18 339.69,388.00 C340.02,388.82 340.36,391.16 340.45,393.18 C340.57,396.13 340.19,396.98 338.55,397.42 C335.30,398.30 332.83,398.09 333.50,397.00 C333.84,396.45 333.41,395.00 332.56,393.78 C331.70,392.56 331.00,390.56 331.00,389.34 C331.00,387.04 329.50,385.38 328.65,386.75 C328.39,387.18 328.81,389.98 329.58,392.97 C330.36,395.96 330.66,398.73 330.25,399.13 C329.84,399.52 327.81,400.16 325.74,400.54 C322.53,401.13 322.07,400.99 322.59,399.61 C323.52,397.19 322.25,394.55 320.74,395.76 C320.06,396.30 316.35,397.30 312.50,397.98 C308.65,398.66 303.93,399.83 302.00,400.59 C300.07,401.35 289.05,404.27 277.50,407.07 C265.95,409.88 256.17,412.50 255.76,412.88 C255.35,413.27 259.63,412.75 265.26,411.74 C279.99,409.10 279.95,409.11 280.45,409.92 C281.09,410.96 243.86,419.29 243.02,418.30 C242.65,417.86 241.53,413.29 240.52,408.16 C238.52,397.97 238.86,396.87 243.70,397.79 C245.59,398.15 246.13,397.92 245.78,396.89 C245.47,396.01 243.94,395.54 241.65,395.61 C237.37,395.75 236.78,394.31 240.75,393.44 C245.98,392.29 246.59,391.67 243.10,391.08 C240.97,390.72 239.40,389.75 238.92,388.50 C238.18,386.59 238.14,386.59 238.07,388.42 C237.94,391.84 236.77,389.23 235.08,381.78 L 233.43,374.50 L 226.45,373.95 C222.61,373.65 218.91,373.06 218.23,372.64 C216.14,371.35 216.76,376.00 221.64,398.31 C224.19,409.96 226.49,420.51 226.76,421.75 C227.48,425.15 225.95,424.51 219.96,418.90 M 261.50,404.63 C263.70,403.78 266.63,403.07 268.00,403.04 C269.38,403.02 273.65,402.10 277.50,401.00 C285.51,398.71 286.06,398.63 284.00,400.10 C282.87,400.90 283.23,400.99 285.50,400.48 C287.15,400.10 290.84,399.64 293.70,399.46 C296.56,399.27 299.75,398.67 300.79,398.11 C301.83,397.56 303.64,397.36 304.83,397.66 C306.27,398.04 307.18,397.69 307.60,396.59 C308.09,395.32 308.54,395.21 309.62,396.10 C310.66,396.97 311.37,396.94 312.50,396.00 C317.02,392.25 311.70,390.54 301.50,392.47 C297.65,393.20 294.40,393.70 294.27,393.58 C294.04,393.37 298.53,391.41 304.75,389.01 C306.67,388.27 308.00,387.05 308.00,386.03 C308.00,385.09 308.90,383.50 310.00,382.50 C312.33,380.39 312.38,380.05 310.84,376.32 C310.20,374.77 309.77,373.11 309.88,372.64 C309.99,372.16 309.38,369.39 308.54,366.48 C307.69,363.57 306.99,360.36 306.98,359.35 C306.96,355.85 305.67,354.99 301.96,355.97 C292.49,358.48 288.31,359.40 286.20,359.45 C284.70,359.48 283.29,360.56 282.19,362.50 C281.26,364.15 280.15,365.76 279.72,366.08 C279.29,366.40 279.22,367.41 279.57,368.33 C280.24,370.06 279.05,370.43 274.14,370.02 C272.55,369.89 271.93,370.26 272.25,371.16 C272.51,371.90 273.79,372.37 275.09,372.22 C277.40,371.95 277.41,371.98 275.48,373.39 C272.72,375.41 274.27,376.45 278.06,375.13 C279.81,374.52 281.74,374.34 282.35,374.72 C283.72,375.56 279.83,376.76 275.25,376.90 C273.05,376.97 272.00,377.49 272.00,378.52 C272.00,379.80 273.25,379.97 279.66,379.55 C286.40,379.11 287.08,379.22 285.41,380.46 C283.57,381.81 283.59,381.90 286.00,382.87 C288.28,383.78 288.13,383.99 284.96,384.38 C284.39,384.44 283.61,385.00 283.21,385.61 C282.82,386.21 280.48,387.01 278.00,387.37 C267.83,388.84 265.95,389.26 265.39,390.18 C264.76,391.19 272.80,390.76 278.75,389.46 C280.61,389.05 282.00,389.15 282.00,389.69 C282.00,390.46 275.83,392.48 263.75,395.67 C262.79,395.93 262.00,396.55 262.00,397.07 C262.00,398.21 261.79,398.21 265.88,397.04 C268.47,396.29 269.95,396.44 272.37,397.70 L 275.50,399.33 L 272.50,400.19 C269.54,401.03 262.46,400.67 258.41,399.47 C256.99,399.05 255.35,399.67 253.27,401.43 C251.59,402.84 249.71,404.00 249.11,404.00 C247.91,404.00 247.63,405.29 248.61,406.27 C249.59,407.26 257.19,406.29 261.50,404.63 M 322.00,393.46 C322.00,393.28 321.49,391.86 320.87,390.32 L 319.75,387.50 L 318.92,390.41 C317.94,393.83 318.48,395.14 320.53,394.35 C321.34,394.04 322.00,393.64 322.00,393.46 M 245.92,388.36 C246.15,388.16 246.05,387.72 245.71,387.38 C244.80,386.47 240.00,387.87 240.00,389.04 C240.00,389.92 244.74,389.37 245.92,388.36 M 265.00,385.83 C265.00,385.38 266.46,384.94 268.25,384.86 C270.45,384.77 270.80,384.59 269.33,384.31 C266.44,383.74 265.43,380.89 267.57,379.32 C269.41,377.98 270.56,372.00 268.98,372.00 C268.44,372.00 268.00,371.16 268.00,370.12 C268.00,367.63 265.67,365.80 263.55,366.62 C261.34,367.47 259.40,372.30 261.05,372.85 C261.94,373.15 261.93,373.42 261.02,373.99 C259.34,375.03 259.15,384.85 260.79,385.87 C262.48,386.91 265.00,386.89 265.00,385.83 M 328.08,378.68 C326.79,377.39 326.65,379.21 327.76,383.00 L 328.49,385.50 L 328.82,382.63 C329.01,381.05 328.67,379.27 328.08,378.68 M 279.00,383.00 C279.00,382.45 278.35,382.00 277.56,382.00 C276.77,382.00 275.84,382.45 275.50,383.00 C275.16,383.55 275.81,384.00 276.94,384.00 C278.07,384.00 279.00,383.55 279.00,383.00 M 333.54,354.31 C332.92,351.84 332.73,351.73 331.84,353.32 C331.14,354.57 331.21,355.55 332.06,356.58 C333.75,358.60 334.38,357.64 333.54,354.31 M 305.46,348.07 C305.77,347.56 305.58,346.86 305.02,346.51 C304.46,346.16 304.00,346.58 304.00,347.44 C304.00,349.20 304.60,349.46 305.46,348.07 M 277.92,330.85 C276.58,328.35 275.58,329.10 276.48,331.94 C276.85,333.09 277.56,333.77 278.07,333.45 C278.63,333.11 278.57,332.07 277.92,330.85 M 244.23,422.80 C244.61,421.67 250.14,420.34 282.50,413.60 C302.78,409.37 331.38,403.19 343.81,400.36 C350.02,398.94 355.30,397.96 355.52,398.19 C356.28,398.95 326.84,405.89 262.70,420.07 C242.34,424.57 243.71,424.36 244.23,422.80 M 284.50,408.68 C286.15,407.91 287.69,407.44 287.92,407.64 C288.64,408.26 287.60,408.82 284.50,409.46 L 281.50,410.09 L 284.50,408.68 M 291.00,407.00 C294.59,405.85 296.21,405.85 295.50,407.00 C295.16,407.55 293.45,407.96 291.69,407.90 C288.64,407.81 288.61,407.76 291.00,407.00 M 299.81,405.32 C300.53,405.03 301.40,405.06 301.73,405.40 C302.06,405.73 301.47,405.96 300.42,405.92 C299.25,405.87 299.01,405.64 299.81,405.32 M 308.75,403.34 C309.44,403.06 310.56,403.06 311.25,403.34 C311.94,403.62 311.38,403.84 310.00,403.84 C308.62,403.84 308.06,403.62 308.75,403.34 M 240.50,379.00 C240.84,378.45 242.33,378.03 243.81,378.07 C246.21,378.13 246.29,378.23 244.50,379.00 C241.72,380.19 239.76,380.19 240.50,379.00 M 124.18,346.50 C125.30,344.05 127.00,343.10 127.00,344.93 C127.00,345.84 124.25,349.00 123.45,349.00 C123.23,349.00 123.56,347.88 124.18,346.50 M 337.38,345.56 C337.08,344.77 337.05,343.30 337.31,342.31 C337.73,340.73 337.88,340.78 338.51,342.75 C338.91,343.99 339.66,345.00 340.18,345.00 C340.69,345.00 340.85,344.57 340.53,344.05 C339.65,342.63 343.51,340.93 347.00,341.20 C351.16,341.51 350.70,344.50 346.49,344.50 C344.84,344.50 343.14,345.06 342.70,345.75 C341.61,347.46 338.06,347.33 337.38,345.56 M 336.19,336.50 C336.22,334.85 336.44,334.30 336.69,335.27 C336.95,336.24 336.93,337.59 336.66,338.27 C336.38,338.95 336.17,338.15 336.19,336.50 M 288.00,332.94 C288.00,331.26 288.39,330.12 288.87,330.42 C289.67,330.91 289.23,336.00 288.38,336.00 C288.17,336.00 288.00,334.62 288.00,332.94 M 311.58,334.36 C311.06,332.99 311.20,332.92 312.48,333.98 C314.21,335.42 314.39,336.00 313.11,336.00 C312.62,336.00 311.93,335.26 311.58,334.36 M 314.64,332.13 C314.19,329.36 313.39,327.94 312.00,327.50 C309.30,326.64 309.48,325.56 312.55,324.16 C315.78,322.69 316.00,322.70 316.00,324.38 C316.00,325.14 316.93,326.01 318.07,326.31 C320.01,326.81 320.05,327.03 318.68,329.64 C317.37,332.14 317.39,332.58 318.86,333.80 C320.36,335.05 320.36,335.12 318.87,334.66 C317.98,334.38 316.80,334.60 316.26,335.14 C315.61,335.79 315.06,334.75 314.64,332.13 M 332.67,333.33 C332.30,332.97 332.00,332.20 332.00,331.63 C332.00,331.01 332.47,331.07 333.18,331.78 C333.83,332.43 334.13,333.20 333.85,333.48 C333.57,333.77 333.03,333.70 332.67,333.33 M 335.16,328.00 C335.16,326.62 335.38,326.06 335.66,326.75 C335.94,327.44 335.94,328.56 335.66,329.25 C335.38,329.94 335.16,329.38 335.16,328.00 M 331.56,327.71 C331.94,326.72 332.50,326.17 332.81,326.47 C333.11,326.78 332.81,327.59 332.12,328.27 C331.14,329.25 331.02,329.13 331.56,327.71 M 285.00,326.94 C285.00,326.36 285.45,326.16 286.00,326.50 C286.55,326.84 287.00,327.32 287.00,327.56 C287.00,327.80 286.55,328.00 286.00,328.00 C285.45,328.00 285.00,327.52 285.00,326.94 M 282.00,321.94 C282.00,321.36 282.45,321.16 283.00,321.50 C283.55,321.84 284.00,322.32 284.00,322.56 C284.00,322.80 283.55,323.00 283.00,323.00 C282.45,323.00 282.00,322.52 282.00,321.94 M 391.50,319.99 C387.65,318.98 380.20,317.20 374.95,316.05 C368.52,314.63 364.84,313.29 363.69,311.95 C362.74,310.85 360.70,309.69 359.15,309.38 C356.77,308.90 356.36,308.36 356.51,305.87 C356.60,304.25 356.30,302.69 355.84,302.40 C355.38,302.12 355.00,300.09 355.00,297.90 C355.00,294.96 355.67,293.24 357.54,291.36 C360.39,288.52 361.16,288.50 380.80,290.99 C389.04,292.03 390.99,292.58 390.55,293.74 C390.21,294.63 390.75,295.38 391.95,295.70 C393.87,296.20 394.77,298.17 396.97,306.69 C397.62,309.23 399.41,312.17 401.52,314.16 C405.09,317.52 405.82,319.00 403.93,319.00 C403.34,319.00 402.18,319.68 401.36,320.50 C399.58,322.27 400.26,322.31 391.50,319.99 M 202.00,319.69 C200.62,318.98 196.35,317.23 192.50,315.80 C188.65,314.37 181.32,311.36 176.21,309.10 C171.09,306.85 165.76,305.00 164.34,305.00 C161.93,305.00 161.82,304.78 162.43,301.25 C163.66,294.18 164.91,292.31 169.60,290.52 C172.04,289.58 176.80,286.74 180.17,284.21 C186.91,279.14 190.90,278.11 203.50,278.19 L 210.50,278.22 L 204.25,279.79 C199.53,280.97 198.00,281.78 198.00,283.12 C198.00,284.09 199.59,292.22 201.54,301.18 C203.48,310.14 204.95,318.26 204.79,319.23 C204.53,320.78 204.20,320.83 202.00,319.69 M 280.00,320.12 C280.00,319.63 280.90,319.00 282.00,318.71 C284.36,318.09 284.71,319.51 282.42,320.39 C280.32,321.20 280.00,321.16 280.00,320.12 M 351.12,318.92 C351.05,317.50 351.56,316.29 352.25,316.24 C352.94,316.19 354.51,315.83 355.75,315.46 C357.12,315.04 358.00,315.19 358.00,315.85 C358.00,317.22 354.88,318.87 353.33,318.31 C352.69,318.08 351.96,318.70 351.70,319.69 C351.38,320.95 351.20,320.71 351.12,318.92 M 329.16,318.00 C329.16,316.62 329.38,316.06 329.66,316.75 C329.94,317.44 329.94,318.56 329.66,319.25 C329.38,319.94 329.16,319.38 329.16,318.00 M 279.02,314.81 C279.01,313.88 279.45,312.84 280.00,312.50 C281.27,311.72 281.27,313.04 280.00,315.00 C279.16,316.29 279.03,316.27 279.02,314.81 M 330.00,305.06 C330.00,302.64 330.56,302.40 331.35,304.47 C331.66,305.28 331.48,306.20 330.96,306.53 C330.43,306.85 330.00,306.19 330.00,305.06 M 292.44,304.11 C292.20,303.87 292.00,302.39 292.00,300.83 C292.00,298.97 292.52,298.00 293.52,298.00 C294.67,298.00 294.88,298.67 294.39,300.75 C293.86,303.01 293.98,303.28 295.07,302.25 C296.58,300.83 301.00,300.55 301.00,301.88 C301.00,304.23 294.31,305.98 292.44,304.11 M 307.15,301.05 C307.37,300.39 307.88,299.88 308.27,299.93 C309.47,300.05 309.24,301.42 307.95,301.85 C307.29,302.07 306.93,301.71 307.15,301.05 M 326.46,300.93 C325.66,299.64 325.85,299.45 328.90,298.51 C330.90,297.89 331.19,298.06 330.65,299.47 C330.29,300.40 330.00,301.35 330.00,301.58 C330.00,302.48 327.08,301.94 326.46,300.93 M 217.55,294.09 C218.07,293.59 227.95,291.10 239.50,288.56 C251.05,286.01 266.35,282.64 273.50,281.07 C287.80,277.91 296.18,276.49 292.00,277.92 C289.33,278.84 286.09,279.59 244.70,288.94 C215.57,295.53 216.17,295.41 217.55,294.09 M 296.73,291.88 C297.41,291.19 298.22,290.89 298.53,291.19 C298.83,291.50 298.28,292.06 297.29,292.44 C295.87,292.98 295.75,292.86 296.73,291.88 M 297.00,276.00 C298.38,275.56 300.62,275.20 302.00,275.20 L 304.50,275.20 L 302.00,276.00 C300.62,276.44 298.38,276.80 297.00,276.80 L 294.50,276.80 L 297.00,276.00 M 306.50,274.00 C307.60,273.53 309.40,273.14 310.50,273.14 L 312.50,273.14 L 310.50,274.00 C309.40,274.47 307.60,274.86 306.50,274.86 L 304.50,274.86 L 306.50,274.00 M 313.81,272.32 C314.53,272.03 315.40,272.06 315.73,272.40 C316.06,272.73 315.47,272.96 314.42,272.92 C313.25,272.87 313.01,272.64 313.81,272.32 M 317.62,212.45 C317.23,211.42 316.29,211.36 313.41,212.15 C308.21,213.59 297.00,211.48 297.00,209.07 C297.00,208.10 298.42,206.73 300.25,205.92 C303.13,204.64 304.63,204.69 313.49,206.32 C318.99,207.34 323.72,208.55 324.01,209.02 C324.31,209.49 325.88,209.85 327.52,209.81 C331.35,209.73 338.72,211.74 339.56,213.10 C340.35,214.37 335.95,213.72 331.29,211.87 C328.60,210.80 327.28,210.85 323.10,212.18 C319.05,213.48 318.03,213.53 317.62,212.45 M 295.56,201.29 C295.02,199.87 295.14,199.75 296.12,200.73 C296.81,201.41 297.11,202.22 296.81,202.53 C296.50,202.83 295.94,202.28 295.56,201.29 M 300.08,201.66 C300.04,200.64 299.10,199.58 298.00,199.29 C296.05,198.78 295.15,197.00 296.85,197.00 C298.37,197.00 301.22,200.85 300.68,202.19 C300.36,203.01 300.13,202.81 300.08,201.66 M 294.35,193.76 C294.09,193.34 294.16,192.55 294.50,192.00 C295.07,191.08 293.14,190.57 290.37,190.90 C289.75,190.97 289.00,190.12 288.71,189.02 C288.28,187.35 288.67,187.00 291.01,187.00 C292.56,187.00 293.99,187.48 294.19,188.06 C294.43,188.80 295.96,188.79 299.30,188.05 C303.16,187.18 304.62,187.27 307.03,188.51 C308.66,189.36 310.00,190.43 310.00,190.89 C310.00,191.35 311.69,192.41 313.75,193.24 C317.41,194.72 317.22,194.75 306.16,194.64 C299.92,194.57 294.61,194.18 294.35,193.76 M 300.28,192.00 C301.06,192.00 301.03,191.63 300.19,190.79 C299.25,189.85 298.60,189.99 297.24,191.43 C295.58,193.20 295.59,193.25 297.33,192.64 C298.34,192.29 299.67,192.00 300.28,192.00 M 417.73,97.08 C417.30,95.42 417.43,95.03 418.17,95.77 C418.75,96.35 419.03,97.42 418.79,98.14 C418.54,98.89 418.08,98.43 417.73,97.08 M 413.16,92.00 C413.16,90.62 413.38,90.06 413.66,90.75 C413.94,91.44 413.94,92.56 413.66,93.25 C413.38,93.94 413.16,93.38 413.16,92.00 M 365.00,67.56 C365.00,66.70 365.45,66.00 366.00,66.00 C366.55,66.00 367.00,66.42 367.00,66.94 C367.00,67.46 366.55,68.16 366.00,68.50 C365.45,68.84 365.00,68.42 365.00,67.56 M 387.50,64.00 C387.16,63.45 387.36,63.00 387.94,63.00 C388.52,63.00 389.00,63.45 389.00,64.00 C389.00,64.55 388.80,65.00 388.56,65.00 C388.32,65.00 387.84,64.55 387.50,64.00 M 170.16,51.29 C169.61,48.70 169.53,45.88 169.98,45.03 C171.44,42.31 175.08,39.52 175.81,40.56 C176.19,41.10 177.68,42.30 179.13,43.22 C182.67,45.47 183.52,49.31 181.31,53.04 C179.82,55.57 178.96,56.00 175.37,56.00 C171.16,56.00 171.16,56.00 170.16,51.29 M 152.00,10.06 C152.00,8.93 152.45,8.00 153.00,8.00 C153.55,8.00 154.00,8.65 154.00,9.44 C154.00,10.23 153.55,11.16 153.00,11.50 C152.45,11.84 152.00,11.19 152.00,10.06 M 276.68,490.30 C276.35,485.51 276.21,481.46 276.38,481.29 C277.01,480.66 282.99,497.21 282.45,498.08 C282.14,498.59 280.85,499.00 279.59,499.00 C277.42,499.00 277.26,498.52 276.68,490.30 M 344.76,492.29 C340.56,487.64 337.04,472.64 338.97,467.57 C339.58,465.97 340.43,465.08 340.87,465.59 C341.97,466.85 347.35,491.46 346.85,492.95 C346.58,493.76 345.90,493.55 344.76,492.29 M 356.73,489.74 C353.40,474.90 351.00,463.94 351.00,463.55 C351.00,463.28 351.61,463.30 352.35,463.58 C355.91,464.95 360.79,480.95 359.59,487.35 C358.78,491.67 357.42,492.81 356.73,489.74 M 284.00,389.00 C284.00,388.45 284.45,388.00 285.00,388.00 C285.55,388.00 286.00,388.45 286.00,389.00 C286.00,389.55 285.55,390.00 285.00,390.00 C284.45,390.00 284.00,389.55 284.00,389.00 M 290.43,387.12 C291.16,385.93 295.00,384.98 295.00,385.99 C295.00,386.82 292.56,388.00 290.86,388.00 C290.32,388.00 290.13,387.60 290.43,387.12 M 300.44,384.53 C302.79,382.68 304.32,382.55 303.76,384.25 C303.53,384.94 302.25,385.63 300.92,385.78 C298.58,386.05 298.56,386.01 300.44,384.53 M 290.50,377.00 C290.84,376.45 291.77,376.00 292.56,376.00 C293.35,376.00 294.00,376.45 294.00,377.00 C294.00,377.55 293.07,378.00 291.94,378.00 C290.81,378.00 290.16,377.55 290.50,377.00 M 296.00,376.00 C296.00,375.45 297.46,375.03 299.25,375.07 C301.97,375.13 302.18,375.28 300.50,376.00 C297.74,377.19 296.00,377.19 296.00,376.00 M 283.73,370.88 C284.41,370.19 285.22,369.89 285.53,370.19 C285.83,370.50 285.28,371.06 284.29,371.44 C282.87,371.98 282.75,371.86 283.73,370.88 Z" />
</g>
</svg>

